<?xml version="1.0" encoding="UTF-8" standalone="no"?>
<!DOCTYPE svg PUBLIC "-//W3C//DTD SVG 1.1//EN" "http://www.w3.org/Graphics/SVG/1.1/DTD/svg11.dtd">
<svg width="100%" height="100%" viewBox="0 0 10 16" version="1.1" xmlns="http://www.w3.org/2000/svg" xmlns:xlink="http://www.w3.org/1999/xlink" xml:space="preserve" xmlns:serif="http://www.serif.com/" style="fill-rule:evenodd;clip-rule:evenodd;stroke-linejoin:round;stroke-miterlimit:1.41421;">
    <g transform="matrix(1,0,0,1,-356.394,-366.972)">
        <g transform="matrix(21.445,0,0,21.445,354.928,378.511)">
            <path d="M0.068,-0.269C0.068,-0.308 0.073,-0.344 0.083,-0.377C0.092,-0.41 0.106,-0.439 0.125,-0.462C0.143,-0.486 0.165,-0.505 0.191,-0.518C0.217,-0.531 0.246,-0.538 0.279,-0.538C0.312,-0.538 0.34,-0.532 0.365,-0.521C0.39,-0.509 0.41,-0.493 0.428,-0.471L0.432,-0.528L0.514,-0.528L0.514,-0.011C0.514,0.024 0.509,0.055 0.498,0.082C0.487,0.109 0.472,0.132 0.452,0.15C0.432,0.169 0.409,0.184 0.381,0.193C0.354,0.203 0.324,0.208 0.291,0.208C0.277,0.208 0.261,0.206 0.244,0.203C0.226,0.2 0.208,0.195 0.19,0.188C0.172,0.181 0.155,0.172 0.138,0.16C0.121,0.148 0.107,0.134 0.095,0.117L0.142,0.063C0.153,0.076 0.164,0.087 0.176,0.096C0.188,0.106 0.199,0.113 0.211,0.119C0.223,0.124 0.236,0.128 0.248,0.131C0.26,0.133 0.272,0.134 0.284,0.134C0.305,0.134 0.325,0.131 0.342,0.125C0.359,0.119 0.374,0.11 0.386,0.098C0.398,0.086 0.408,0.071 0.414,0.054C0.421,0.036 0.424,0.016 0.424,-0.007L0.424,-0.052C0.406,-0.032 0.385,-0.017 0.362,-0.006C0.338,0.004 0.31,0.01 0.278,0.01C0.246,0.01 0.217,0.003 0.191,-0.011C0.165,-0.024 0.143,-0.043 0.125,-0.067C0.107,-0.091 0.093,-0.12 0.083,-0.153C0.073,-0.185 0.068,-0.221 0.068,-0.258L0.068,-0.269ZM0.159,-0.258C0.159,-0.233 0.161,-0.208 0.167,-0.185C0.172,-0.162 0.181,-0.142 0.192,-0.124C0.204,-0.106 0.218,-0.093 0.236,-0.082C0.254,-0.072 0.276,-0.067 0.301,-0.067C0.316,-0.067 0.33,-0.069 0.343,-0.073C0.356,-0.076 0.367,-0.082 0.377,-0.088C0.387,-0.095 0.396,-0.103 0.403,-0.113C0.411,-0.122 0.418,-0.133 0.424,-0.144L0.424,-0.386C0.418,-0.397 0.411,-0.407 0.403,-0.417C0.396,-0.426 0.387,-0.434 0.376,-0.44C0.366,-0.447 0.355,-0.452 0.343,-0.456C0.33,-0.46 0.317,-0.461 0.302,-0.461C0.276,-0.461 0.255,-0.456 0.237,-0.446C0.219,-0.435 0.204,-0.421 0.192,-0.404C0.181,-0.386 0.172,-0.365 0.167,-0.342C0.161,-0.319 0.159,-0.294 0.159,-0.269L0.159,-0.258Z" style="fill-rule:nonzero;"/>
        </g>
    </g>
</svg>
